<svg xmlns="http://www.w3.org/2000/svg" version="1.1" viewBox="0 0 2920 2920"><path d="M0 0h2920v2920H0V0Z" fill="#FEFEFE"/><path d="m1420 640 10 30c19.75-3.48 19.75-3.48 40-10l10-20c57.07 16.52 107.33 42.95 160 70v110l-70-20v30l26.29 8.48c31.67 10.82 62.26 22.9 93.09 35.9 10.35 4.35 20.7 8.7 31.36 13.2 33.12 14.06 66.23 28.16 99.26 42.42l10 100h10l10-80c44.72 14.18 87.1 31.13 130 50v100h-20v30h20v480c-101.25-11.25-101.25-11.25-146.91-21.91l-29.2-6.74-29.52-6.97-30.56-7.1c-24.61-5.71-49.21-11.5-73.81-17.28l-10-100c-5.47 61.49-10.74 122.6-10 184.38.78 65.53-4.83 130.32-10 195.62l-130-10v30l130 10v270h20l10-120 150 10v100h-130v20l23.36 1.84 30.39 2.54 30.23 2.46C1800 2150 1800 2150 1820 2160v100h-150l-10-80-10 80h-170l-10-130c-44.13-8.83-83.6-11.18-128.13-10.63l-21 .14c-16.95.12-33.9.3-50.87.5l-10-140h-20v280h-150v-100h-20v100H940v-100h120v-20l-130-10v-90h-20v90c-29.57 14.77-57.42 10.6-90 10v20h90v100H660l-10-90v90H440v-90h130v-20h-20v-90h50v-20H440v-80l60-10-60-10v-190l81.88-20 25.51-6.34c38.56-9.24 72.7-14.85 112.6-13.67 16.76-6.4 33.45-13.03 50-20h30v-20l-80 10v-110l-120 20-10-90-90 10v-80a7415.05 7415.05 0 01 48.12-20l27.07-11.25C540 1390 540 1390 570 1390v-20l-20-10v-80l90-30v90h-20v20c32.65-8 65.07-16.75 97.5-25.63l29.84-8.16L770 1320v50h20v-60l30-10v-20h-30a5852.81 5852.81 0 01-.63-43.75l-.35-24.6C790 1190 790 1190 800 1170l-20.82 6.56-27.3 8.44-27.08 8.44C700 1200 700 1200 670 1200c-2.5-76.25-2.5-76.25 20-110h-30v-90c14.1-7.02 28.28-13.86 42.5-20.63l23.9-11.6c26.2-8.63 38.09-7.07 63.6 2.23l10 50c40.18 8.4 70.18 10.54 110 0l10 80-2.03-17.58C917.4 1054.3 919 1036.1 930 1010c39.29-28.47 90.16-60 140-60v100l-50 10v30l50-10v100l20-10v-100c19.35-8.4 38.73-16.72 58.13-25l32.7-14.06C1210 1020 1210 1020 1240 1020l10 50h10l10-70 50-10v-30l-50 10c-.54-17.5-.93-35-1.25-52.5l-.7-29.53C1270 859.8 1275.55 843.9 1290 820h-20V710l150-70Zm-340 1460v30Z" fill="#ECF3F6"/><path d="M640 1250v90h-20v20c32.65-8 65.07-16.75 97.5-25.63l29.84-8.16L770 1320c.8 14.57 1.4 29.16 1.88 43.75l1.05 24.6L770 1410l-30 20 30 10v120c1.55 13.76 3.23 27.51 5 41.25L780 1640l10-80a3445.66 3445.66 0 01 37.5-15l21.1-8.44C870 1530 870 1530 910 1530v90l-80 30v20l20-10c20-.4 40-.43 60 0v80h20l-.7-18.63-.55-24.5-.7-24.25C930 1650 930 1650 950 1620h-20v-100l29.38-8.75c31.69-7.67 31.69-7.67 40.62-31.25h-60v-90c84.29-32.86 84.29-32.86 130-40l10 100 10-110c21.24-6.7 42.5-13.36 63.75-20l35.86-11.25c30.4-8.75 30.4-8.75 50.4-8.75l-.02 110-130.01 40v10c14.17-1.42 28.34-2.9 42.5-4.38 7.89-.8 15.78-1.62 23.9-2.46 26.56-3.11 26.56-3.11 63.6-13.16v110l-50 20v20h50v110h-20v20h20v120l-150 10 .63-59.38A1169.82 1169.82 0 00 1080 1630l.35 21.17.28 27.58.35 27.42C1080 1730 1080 1730 1070 1750c-.7 18.74-.84 37.5-.63 56.25L1070 1860l-140 10v-80h-20v90l-60 10v20h60v90h20v-100l140-10v100h10l10-100c100.45-21.43 100.45-21.43 150-20v90h20v20h-20v280h-150v-100h-20v100H940v-100h120v-20l-130-10v-90h-20v90c-29.57 14.78-57.42 10.6-90 10v20h90v100H660l-10-90v90H440v-90h130v-20h-20v-90h50v-20H440v-80l60-10-60-10v-190l81.88-20 25.51-6.33c38.56-9.24 72.7-14.85 112.6-13.67 16.76-6.4 33.45-13.03 50-20h30v-20l-80 10v-110l-120 20-10-90-90 10v-80a7415.05 7415.05 0 01 48.12-20l27.07-11.25C540 1390 540 1390 570 1390v-20l-20-10v-80c67.5-30 67.5-30 90-30Zm440 850v30Z" fill="#EDF3F6"/><path d="m1420 640 10 30c19.75-3.48 19.75-3.48 40-10l10-20c57.07 16.52 107.33 42.95 160 70v110l-70-20v30l26.29 8.48c31.67 10.82 62.26 22.9 93.09 35.9 10.35 4.35 20.7 8.7 31.36 13.2 33.12 14.06 66.23 28.16 99.26 42.42l10 100h10l10-80c44.72 14.18 87.1 31.13 130 50v100h-20v30h20v480c-101.3-11.26-101.3-11.26-137.1-19.38l-23.33-5.23-23.32-5.4-24.02-5.4c-31.38-7.1-61.67-14.42-92.23-24.6v-100c85.7 10 85.7 10 120 20l10-20-130-40 .98-77.16c1.6-22.5 1.6-22.5-10.98-32.85l1.88 33.75L1670 1370c-42.01 28-71.94 18.9-120 10-20.2-6.03-40.32-12.43-60-20v-110c86.25 18.75 86.25 18.75 120 30v-40l-21.17-4.02-27.58-5.35-27.42-5.28C1510 1220 1510 1220 1490 1210v-110c51.26 10.87 100.6 22.26 150 40l10-20h30c-17.06-27.71-17.06-27.71-30-40l-20 30-17.93-6.91c-59.94-22.67-59.94-22.67-122.07-13.09l-10 70h-10v-60l-20 10c-4.67 21.26-4.67 21.26-6.25 45.63l-2.27 25.03L1440 1200c-56.12 22.45-110.71 38.33-170 50v-250l50-10v-30l-50 10c-.54-17.5-.93-35-1.25-52.5l-.7-29.53C1270 859.8 1275.55 843.9 1290 820h-20V710l150-70Z" fill="#F3F9FA"/><path d="m2140 1560 110 20c12.05 111.16 12.05 111.16 0 160h20v-30l210 40v80h-60v20l50 10v80l-30 10 30 10v80l-160 10 60 10v90h-90v20c16.7-.3 16.7-.3 33.75-.63C2350 2170 2350 2170 2370 2180v80h-100l-10-70-10 70h-110v-80h-20v80h-270v-230l40-10-10-20-30-10v-100l31.76 2.19a555670.94 555670.94 0 00 62.28 4.26c28.73 1.94 57.16 3.55 85.96 3.55l-30-20c-1.88-26.25-1.88-26.25 0-50h-20v40c-45.16.77-85.9 1.02-130-10v-100h90v-20l-90-10v-110l28.95 5.86 39.17 7.89 20.52 4.14a4954.53 4954.53 0 00 151.6 27.8C2110 1670 2110 1670 2120 1680c.72 16.86.84 33.75.63 50.63l-.28 27.85L2120 1780h10c6.37-73.55 11.25-146.16 10-220Z" fill="#F6FBFC"/><path d="M640 1250v90h-20v20c32.65-8 65.07-16.75 97.5-25.63l29.84-8.16L770 1320c.8 14.57 1.4 29.16 1.88 43.75l1.05 24.6L770 1410l-30 20 30 10v120c1.55 13.76 3.23 27.51 5 41.25L780 1640l10-80a3445.66 3445.66 0 01 37.5-15l21.1-8.44C870 1530 870 1530 910 1530v90l-80 30v20l20-10c20-.4 40-.43 60 0v80h20l-.7-18.63-.55-24.5-.7-24.25C930 1650 930 1650 950 1620h-20v-100l29.38-8.75c31.69-7.67 31.69-7.67 40.62-31.25h-60v-90c84.29-32.86 84.29-32.86 130-40l10 100 10-110c21.24-6.7 42.5-13.36 63.75-20l35.86-11.25c30.4-8.75 30.4-8.75 50.4-8.75l-.02 110-130.01 40v10c14.17-1.42 28.34-2.9 42.5-4.38 7.89-.8 15.78-1.62 23.9-2.46 26.56-3.11 26.56-3.11 63.6-13.16v110l-50 20v20h50v110h-20v20h20v120l-150 10 .63-59.38A1169.82 1169.82 0 00 1080 1630l.35 21.17.28 27.58.35 27.42C1080 1730 1080 1730 1070 1750c-.7 18.74-.84 37.5-.63 56.25L1070 1860l-140 10v-80h-20v90c-13.9 2-13.9 2-28.09 4.02l-36.29 5.36-36.2 5.27c-28.22 2.25-28.22 2.25-39.42 15.35-36.7 1.43-73.27.42-110 0v-200c50-20 50-20 80-20v-20l-80 10v-110l-120 20-10-90-90 10v-80a7415.05 7415.05 0 01 48.13-20l27.07-11.25C540 1390 540 1390 570 1390v-20l-20-10v-80c67.5-30 67.5-30 90-30Z" fill="#DEE8F0"/><path d="M1070 950v100l-50 10v30l50-10v100l20-10v-100c19.35-8.4 38.73-16.72 58.13-25l32.7-14.06C1210 1020 1210 1020 1240 1020l3.75 24.38L1250 1070l20 10v30l20 10-10 10a1445.04 1445.04 0 00-5.63 60.63l-2.53 33.47L1270 1250c-43.93 20.2-81.53 34.09-130 40v40l-50 10v110l-20 10v-110l-120 40-10 90 70-10c-6.25 19.38-6.25 19.38-20 40-31.25 7.5-31.25 7.5-60 10v100h20l-20 120h-20v-80l-80 10v-20l-20-10 100-20v-90l-110 30-3.75 39.38c-2.1 22.14-2.1 22.14-6.25 40.62l-20 10v-90l-20-10 10-10c2.33-16.82 4.13-33.71 5.63-50.63l2.53-27.85L770 1440l-40-10 30-20c7.24-20.6 7.24-20.6 10-40h20v-60l30-10v-20h-30a5852.81 5852.81 0 01-.63-43.75l-.35-24.6C790 1190 790 1190 800 1170l-20.82 6.56-27.3 8.44-27.08 8.44C700 1200 700 1200 670 1200c-2.5-76.25-2.5-76.25 20-110h-30v-90c14.1-7.02 28.28-13.86 42.5-20.63l23.9-11.6c26.2-8.63 38.09-7.07 63.6 2.23l10 50c40.18 8.4 70.18 10.54 110 0l10 80-2.03-17.58C917.4 1054.3 919 1036.1 930 1010c39.29-28.47 90.16-60 140-60Z" fill="#F8FCFC"/><path d="M1371.37 1847.58c41.48-2.69 56.22.4 88.63 27.42l20 25 10-50c52.95-.93 96.42 2.35 150 10v270h20l10-120 150 10v100h-130v20l23.36 1.84 30.39 2.54 30.23 2.46C1800 2150 1800 2150 1820 2160v100h-150l-10-80-10 80h-170l-10-130c-44.13-8.83-83.6-11.18-128.13-10.63l-21 .14c-16.95.12-33.9.3-50.87.5-1.94-23.13-3.8-46.26-5.63-69.39l-3.16-39.02-1.2-31.6 10.01-10c.72-18.53.84-37.08.63-55.63l-.28-30.66L1270 1860c33.75-4.82 67.5-8.58 101.37-12.42Z" fill="#ECF3F7"/><path d="m2140 1080 110 30v110h20v-90l100 40c11.25 87.5 11.25 87.5 0 110 18.74 7.94 37.5 15.85 56.25 23.75l31.64 13.36c30.4 12.2 61 22.64 92.11 32.89l20 10v80l-90-20v90l-20.47-4.38-27.03-5.62-26.72-5.63c-28-5.49-28-5.49-65.78-4.37l30 10v90l-100-20v-50h-20v40a9987.1 9987.1 0 01-49.38-9.38l-27.77-5.27C2150 1540 2150 1540 2140 1530c-4.55-26.55-7.02-53.22-10-80l-10 70c-48.14-4.81-76.02-8-120-30v-90l110 20c37.6-75.18 31.37-157.99 30.63-240.63l-.14-29.12c-.12-23.41-.3-46.83-.5-70.25Z" fill="#EAF3F8"/><path d="M1660 1440h10v110l26.91 3.4c57.93 8.27 115.14 20.6 172.46 32.22l35.18 7.1c28.49 5.74 56.97 11.5 85.45 17.28l-10 40c-17.92-3.09-35.84-6.22-53.75-9.38l-30.23-5.27C1870 1630 1870 1630 1850 1620v110l90 10v20h-90v100l130 10v-40h20v50h70l-20 30h-40v90h-10v-100l-46.88.63c-35.74.05-68.37-1.36-103.12-10.63v100l40 10 10 30h-50v90l-30-10v-90l-41.25.63c-37.3.05-72.1-3.11-108.75-10.63l.35 18.63.28 24.5.35 24.25C1670 2100 1670 2100 1660 2130h-20v-270l-130-10v-30c16.04-.27 32.08-.46 48.13-.63l27.07-.35C1610 1820 1610 1820 1640 1830l-.16-24.12c-.2-36.54-.34-73.09-.47-109.63l-.25-37.93c-.38-144.87-.38-144.87 10.88-208.32l10-10Z" fill="#F5F9FA"/><path d="m2270 1710 210 40v80h-60v20l50 10v80l-30 10 30 10v80l-160 10 60 10v90h-90v20c16.7-.3 16.7-.3 33.75-.63C2350 2170 2350 2170 2370 2180v80h-100l-10-70-10 70h-110v-330c78.75 0 78.75 0 110 10l10 60 10-60h80v-10l-80-10v-90h90l10-20-100-10v-90Z" fill="#D9E5ED"/><path d="m1850 1890 150 10 10 100 110 10v-50h20v220h-20v80h-270v-230l40-10-10-20-30-10v-100Z" fill="#F9FCFC"/><path d="M1850 1220c17.92 4.77 35.84 9.56 53.75 14.38l30.23 8.08C1960 1250 1960 1250 1980 1260v350c-101.3-11.26-101.3-11.26-137.1-19.38l-23.33-5.23-23.32-5.4-24.02-5.4c-31.38-7.1-61.67-14.42-92.23-24.6v-100c85.71 10 85.71 10 120 20l10-20-130-40v-100c45.71 5.48 86.74 14.16 130 30 22.14-37.96 30.1-77.57 40-120Z" fill="#F6FDFD"/><path d="M1070 950v100l-50 10v30h40v100c-17.9 6.7-35.82 13.36-53.75 20l-30.23 11.25C950 1230 950 1230 930 1230l-10-80-10 90c-76.25 30-76.25 30-110 30v-100l-20.82 6.56-27.3 8.44-27.08 8.44C700 1200 700 1200 670 1200c-2.5-76.25-2.5-76.25 20-110h-30v-90c14.1-7.02 28.28-13.86 42.5-20.63l23.9-11.6c26.2-8.63 38.09-7.07 63.6 2.23l10 50c40.18 8.4 70.18 10.54 110 0l10 80-2.03-17.58C917.4 1054.3 919 1036.1 930 1010c39.29-28.47 90.16-60 140-60Z" fill="#D6E1EA"/><path d="m1420 640 10 30c19.75-3.48 19.75-3.48 40-10l10-20c57.07 16.52 107.33 42.95 160 70v110l-70-20-10 30-70-30v110l-40-20c-24.38 12.11-24.38 12.11-50 30a1995.14 1995.14 0 01-68.13 26.88l-35.2 13.24L1270 970c-.54-17.5-.93-35-1.25-52.5l-.7-29.53C1270 859.8 1275.55 843.9 1290 820h-20V710l150-70Z" fill="#ECF4F7"/><path d="M1240 1870v90h20v20h-20v280h-150v-100h-20v100H940v-100h120c18.12-36.25 23.19-53.73 26.25-92.5l2.27-27.03L1090 2020l90-20-90-10v-100c100.45-21.43 100.45-21.43 150-20Z" fill="#D5E0E9"/><path d="M640 1710c.27 14.8.46 29.58.63 44.38l.35 24.96C640 1800 640 1800 630 1810l20 10v90l-60 20 60 10v90h-20l10 20a953.3 953.3 0 01 .63 51.25l-.28 27.58L640 2150h-90v-90h50v-20H440v-80l60-10-60-10v-190l83.13-20 26.06-6.33 20.67-4.92 21.1-5.08C610 1710 610 1710 640 1710Z" fill="#D7E3EC"/><path d="m2270 1710 210 40v80h-60v20l50 10v80l-30 10 30 10v80c-22.08.27-44.17.46-66.25.63l-37.27.35c-33.25-.9-63.88-4.61-96.48-10.98v-90h80v-10l-80-10v-90h90l10-20-100-10v-90Z" fill="#E3EEF6"/><path d="M2270 1250c44.84 8.97 85.06 21.9 127.5 38.13l21.39 8.09a2338.96 2338.96 0 01 151.1 63.78v80l-90-20v90c-71.85-12.75-144.27-27.13-210-60v-200Z" fill="#DBE9F2"/><path d="M1070 1890v100h120l-10 20c-20.66 4.14-20.66 4.14-45.63 6.25l-25.03 2.27L1090 2020l1.25 38.13c1.14 34.78-.66 40.98-21.25 71.87-32.58 2.93-32.58 2.93-71.25 1.88l-38.83-.83L930 2130v-90h-50l30-10v-30h20v-100c47.24-6.52 92.2-11.2 140-10Z" fill="#ECF3F6"/><path d="M1080 1620h10c7.98 78.3 11.45 151.96 0 230l24.38-5c42.5-5.97 82.7-5.65 125.62-5v-90l30-10v90l160-20v-110h10c1.08 19.36 1.86 38.74 2.5 58.13l1.4 32.7c-3.9 29.17-3.9 29.17-22.65 47.6-48.21 26.24-97.8 22.48-151.25 21.57v110l20 10h-30v-20h-20v-90l-150 20 1.88 48.75c1.05 27.42 1.05 27.42-1.88 51.25l-30 20-20-20h30v-100l-25 5c-39.13 5.59-75.52 5.68-115 5v100h-20v-90h-60v-20l60-10v-90h20v80l140-10-5.63-58.75c-5.62-58.75-5.62-58.75 5.63-81.25.45-15.2.4-30.42 0-45.63a780.2 780.2 0 01 0-44.37l10-10Z" fill="#F2FAFC"/><path d="M790 2050h10v80h90v10h-70v20h90v100H660v-200h10v80h110l10-90Z" fill="#C9D5E1"/><path d="M420 2040h180v20h-50v90h20v20l-150 10v-20h-80v-80l34.38-8.75L410 2060l10-20Z" fill="#F5F8F8"/><path d="M1260 1280h10v120h50v20l-50 10v110l70-10c-7.5 19.38-7.5 19.38-20 40l-40 10-10 110h-20l-10 20v-120h-50l10-40h40v-110l-40 20c-25.78 4.14-25.78 4.14-52.5 6.25l-27.03 2.27L1100 1470l10-30c19.26-9.5 19.26-9.5 43.13-16.88 7.8-2.5 15.6-5.02 23.63-7.61 23.24-5.5 23.24-5.5 63.24-5.5l-.7-20.82-.55-27.3-.7-27.08C1240 1310 1240 1310 1260 1280Z" fill="#F3FAFB"/><path d="m1366.88 1999.38 35.74.27L1430 2000v110l-160 10v-110c34.22-11.4 60.87-10.98 96.88-10.63Z" fill="#32527B"/><path d="M1430 1700v110c-103.75 20-103.75 20-160 20v-110c103.75-20 103.75-20 160-20Z" fill="#2B4D77"/><path d="M1430 1400v110c-103.75 30-103.75 30-160 30v-110c19.15-5.06 38.32-10.04 57.5-15l32.34-8.44C1390 1400 1390 1400 1430 1400Z" fill="#2E4E76"/><path d="M1430 940v120c-22.9 8.37-45.82 16.7-68.75 25l-19.73 7.23C1292.27 1110 1292.27 1110 1270 1110v-110a51990.3 51990.3 0 01 74.38-30l21.42-8.67C1418.87 940 1418.87 940 1430 940Z" fill="#355175"/><path d="M1430 1090v120c-21.03 6.72-42.07 13.37-63.13 20l-35.5 11.25C1300 1250 1300 1250 1270 1250v-110c24.79-8.35 49.58-16.68 74.38-25l21.42-7.23C1418.87 1090 1418.87 1090 1430 1090Z" fill="#2D4E75"/><path d="M1430 790v120l-160 60V860c22.9-11.72 45.81-23.37 68.75-35l19.73-10.12C1407.73 790 1407.73 790 1430 790Z" fill="#2B4C72"/><path d="M1430 640v120c-22.9 10.04-45.82 20.04-68.75 30l-19.73 8.67C1292.27 820 1292.27 820 1270 820V710c24.78-11.69 49.57-23.35 74.38-35l21.42-10.12C1418.87 640 1418.87 640 1430 640Z" fill="#2D4C71"/><path d="M1270 2150h160v110h-160v-110Z" fill="#2B4B71"/><path d="M1430 1850v110l-160 10v-110a984.4 984.4 0 01 160-10Z" fill="#2E4D73"/><path d="M1430 1240v120l-160 40v-110c24.79-8.35 49.58-16.68 74.38-25l21.42-7.23C1418.87 1240 1418.87 1240 1430 1240Z" fill="#2D4C72"/><path d="M1430 1550v110c-105.71 22.86-105.71 22.86-160 20v-100l33.13-9.38c45.54-13.12 79.34-21.68 126.87-20.62Z" fill="#2C4D78"/><path d="M1490 1700c105 8.75 105 8.75 150 20v110c-21.25-1.4-42.5-2.88-63.75-4.38-11.83-.8-23.67-1.62-35.86-2.46C1510 1820 1510 1820 1490 1810v-110Z" fill="#345377"/><path d="M1490 1100c51.26 10.87 100.6 22.26 150 40v110l-46.88-8.75-26.36-4.92C1540 1230 1540 1230 1490 1210v-110Z" fill="#2D4D74"/><path d="M1490 1550c50.34 5.34 100.15 11.05 150 20v110c-19.38-1.41-38.75-2.88-58.13-4.38-10.78-.8-21.57-1.62-32.7-2.46C1520 1670 1520 1670 1490 1660v-110Z" fill="#2E4E76"/><path d="M1490 1400c51.35 6.42 99.94 16.83 150 30v110c-51.35-6.42-99.94-16.83-150-30v-110Z" fill="#284B70"/><path d="M1490 650c57.94 11.59 97.74 32.83 150 60v110a55416.5 55416.5 0 01-63.75-24.38l-35.86-13.7C1510 770 1510 770 1490 760V650Z" fill="#2B4C75"/><path d="M1490 2150h150v110h-150v-110Z" fill="#2A4B72"/><path d="M1490 1850c51.52-.9 99.2 1.53 150 10v110l-150-10v-110Z" fill="#274970"/><path d="M1490 800c41.64 8.33 66.55 16.6 103.13 35.63l26.75 13.78L1640 860v100c-53.62-9.18-99.84-29.27-150-50V800Z" fill="#2A4B72"/><path d="M1490 1250c51.26 10.87 100.6 22.26 150 40v100c-53.27-4.84-99.72-10.66-150-30v-110Z" fill="#2B4D74"/><path d="M1490 950c54.46 10.9 98.78 28.83 150 50v110l-150-50V950Z" fill="#2C4D73"/><path d="M1490 2000c51.63-.78 99.2-.42 150 10v110l-150-10v-110Z" fill="#294B73"/><path d="M1240 1020v100c-94.29 44.29-94.29 44.29-150 50v-100c19.35-8.4 38.73-16.72 58.13-25l32.7-14.06C1210 1020 1210 1020 1240 1020Z" fill="#355479"/><path d="M1240 730v110a18342.83 18342.83 0 01-63.75 30l-35.86 16.88C1109.99 900 1109.99 900 1089.99 900l.02-100a40534.2 40534.2 0 01 69.4-35l19.97-10.12C1228.86 730 1228.86 730 1240 730Z" fill="#3A577E"/><path d="M1680 1020c95 27.5 95 27.5 140 50v100c-50.03-10.45-92.23-20.9-140-40v-110Z" fill="#29496F"/><path d="M1240 1300v110c-95 30-95 30-140 30v-100c19.57-6.7 39.16-13.36 58.75-20l33.05-11.25C1220 1300 1220 1300 1240 1300Z" fill="#2E5076"/><path d="M1240 1160v110c-95 30-95 30-140 30v-100c17.69-6.73 35.4-13.38 53.13-20l29.88-11.25C1210 1160 1210 1160 1240 1160Z" fill="#315077"/><path d="M1680 880c95.71 31.43 95.71 31.43 140 50v100c-54.27-5.43-92.55-24.64-140-50V880Z" fill="#2D4D72"/><path d="M1240 1870v110h-140c-.98-69.34-.98-69.34 0-90 27-27 105.01-20 140-20Z" fill="#345378"/><path d="M1240 1440v110c-17.7 5.05-35.4 10.04-53.13 15l-29.88 8.44C1130 1580 1130 1580 1100 1580v-100c19.57-6.7 39.16-13.36 58.75-20l33.05-11.25C1220 1440 1220 1440 1240 1440Z" fill="#284972"/><path d="M1230 1730v100c-48.42 13.36-89.34 22.53-140 20v-100c95-20 95-20 140-20Z" fill="#304F75"/><path d="M1680 1590c46.9 5.66 93.45 11.85 140 20v100c-19.59-1.4-39.17-2.88-58.75-4.38-10.9-.8-21.81-1.62-33.05-2.46C1700 1700 1700 1700 1680 1690v-100Z" fill="#2D4C73"/><path d="M1680 1310c48.69 5.96 93.28 15.7 140 30v100a16558.6 16558.6 0 01-58.75-9.38l-33.05-5.27C1700 1420 1700 1420 1680 1410v-100Z" fill="#2B4C73"/><path d="M1230 2010v110h-140v-100c19.58-1.68 39.17-3.34 58.75-5l33.05-2.81c16.03-1.25 32.12-2.19 48.2-2.19Z" fill="#2D4D74"/><path d="M1240 1590v100c-48.42 13.36-89.34 22.53-140 20v-100c95-20 95-20 140-20Z" fill="#2F4E75"/><path d="M1680 1450c49.7 5.14 92.9 12.34 140 30v100c-17.71-3.1-35.42-6.23-53.13-9.38l-29.88-5.27C1710 1560 1710 1560 1680 1550v-100Z" fill="#2A4C73"/><path d="M1680 2160h140v100h-140v-100Z" fill="#284971"/><path d="M1100 2160h140v100h-140v-100Z" fill="#2C4C73"/><path d="M1680 2020h140v100h-140v-100Z" fill="#294A70"/><path d="M1640 1290h10l10 80 10-70 30 10h-20v100l140 30-10 40-130-30v100h-10l-10-100-10 100-20-10 10-110-80-10 20-10v-20h60v-100Z" fill="#DCE4EC"/><path d="M1070 1890v100c-30.15 10.05-50.42 11.03-81.88 10.63L940 2000v-100c43.86-7.02 85.58-11.08 130-10Z" fill="#39577B"/><path d="m1850 1890 130 10v100l-48.13.63-27.07.35C1880 2000 1880 2000 1850 1990v-100Z" fill="#38587C"/><path d="M1850 2160h130v100h-130v-100Z" fill="#284970"/><path d="M1850 2030h130v100h-130v-100Z" fill="#2E4B6F"/><path d="m1850 1620 130 30v90l-130-10v-110Z" fill="#325478"/><path d="M1850 1220c17.92 4.77 35.84 9.56 53.75 14.38l30.23 8.08C1960 1250 1960 1250 1980 1260v100a3824242700.86 3824242700.86 0 00-83.98-22.46C1870 1330 1870 1330 1850 1320v-100Z" fill="#2D4E76"/><path d="m1850 1760 130 10v100c-45.16.77-85.9 1.02-130-10v-100Z" fill="#2E4A6D"/><path d="M1850 1090c48.47 5.91 86.07 19.8 130 40v100l-48.13-14.38-27.07-8.08A2156.47 2156.47 0 01 1850 1190v-100Z" fill="#37567A"/><path d="M1850 1360c45.71 5.49 86.74 14.17 130 30v100l-130-30v-100Z" fill="#385578"/><path d="M1850 820c45.59 14.75 87.1 28.55 130 50v100c-44.72-14.18-87.11-31.13-130-50V820Z" fill="#325177"/><path d="M1850 950c44.72 14.18 87.11 31.13 130 50v100c-45.59-14.75-87.1-28.55-130-50V950Z" fill="#334F70"/><path d="M1070 950v100l-130 50v-100c17.9-8.38 35.82-16.7 53.75-25l30.23-14.06C1050 950 1050 950 1070 950Z" fill="#2F4D75"/><path d="m1850 1490 130 30v90l-42.5-4.38-23.9-2.46C1890 1600 1890 1600 1850 1590v-100Z" fill="#325177"/><path d="M940 2160h120v100H940v-100Z" fill="#2C4C72"/><path d="M940 2030h120v100H940v-100Z" fill="#2E4C72"/><path d="M1060 1760v100l-120 10v-100c40.64-7.74 78.64-10.98 120-10Z" fill="#2F4B6C"/><path d="M1060 1630v100l-120 10v-100c40.53-9.82 78.39-10.82 120-10Z" fill="#2C4D74"/><path d="M1060 1490v100c-42.66 11.38-75.65 20-120 20v-90a6646.23 6646.23 0 01 43.13-15l24.25-8.44C1030 1490 1030 1490 1060 1490Z" fill="#2E4E73"/><path d="M1060 1360v100c-42.66 11.38-75.65 20-120 20v-90c75-30 75-30 120-30Z" fill="#305075"/><path d="M1060 1090v100l-120 40v-100c86.25-40 86.25-40 120-40Z" fill="#2E4D73"/><path d="M2000 1400c86.25 18.75 86.25 18.75 120 30v90c-48.14-4.81-76.02-8-120-30v-90Z" fill="#3E5C7F"/><path d="M1640 1000h10l10 80 10-60h10v100h-30v130h-10v-110l-41.25-8.75A883.56 883.56 0 01 1490 1100v110h-10a5319.51 5319.51 0 01-1.25-58.75l-.7-33.05C1480 1090 1480 1090 1500 1070c45.97 3.54 86.8 14.2 130 30l10-100Z" fill="#D7E1EB"/><path d="m2010 1910 110 10v90h-110v-100Z" fill="#2E4F73"/><path d="M910 1530v90c-38.3 18.02-67.81 21.96-110 20v-90c38.77-11.93 69.16-20 110-20Z" fill="#2A4C73"/><path d="M910 1270v100l-110 30v-100c87.5-30 87.5-30 110-30Z" fill="#2F4E73"/><path d="M2010 1150c41.28 6.07 73.32 20.38 110 40v90a12227.7 12227.7 0 01-49.38-14.38l-27.77-8.08C2020 1250 2020 1250 2010 1240a744.56 744.56 0 01-.63-45.63l.28-25.03L2010 1150Z" fill="#2F4F73"/><path d="M910 1910v100H800v-90c37.35-5.75 72.13-10 110-10Z" fill="#244A75"/><path d="M910 1150v90c-76.25 30-76.25 30-110 30v-90c76.25-30 76.25-30 110-30Z" fill="#2B4A6F"/><path d="M910 1020v90a8752.82 8752.82 0 01-43.75 20l-24.6 11.25C820 1150 820 1150 800 1150v-90a8752.82 8752.82 0 01 43.75-20l24.6-11.25C890 1020 890 1020 910 1020Z" fill="#274870"/><path d="M910 1780v100l-110 10v-90c87.5-20 87.5-20 110-20Z" fill="#244A75"/><path d="m2010 1790 38.13-.63 21.44-.35C2090 1790 2090 1790 2120 1800v90l-110-10v-90Z" fill="#2C4D73"/><path d="M910 1660v90l-110 20v-90c38.3-18.02 67.81-21.96 110-20Z" fill="#2E4E74"/><path d="m2140 1560 110 20v90c-16.46-1.4-32.92-2.87-49.38-4.38l-27.77-2.46C2150 1660 2150 1660 2140 1650c-1.42-30.03-.42-59.92 0-90Z" fill="#486587"/><path d="M2140 1440c14.6 3.1 29.17 6.22 43.75 9.38l24.6 5.27C2230 1460 2230 1460 2250 1470v90a9987.1 9987.1 0 01-49.38-9.38l-27.77-5.27C2150 1540 2150 1540 2140 1530a744.56 744.56 0 01-.63-45.63l.28-25.03L2140 1440Z" fill="#3E5B7E"/><path d="M2010 1660c16.46 1.4 32.92 2.87 49.38 4.38l27.77 2.46C2110 1670 2110 1670 2120 1680c1.42 30.03.42 59.92 0 90l-110-20v-90Z" fill="#2B4C71"/><path d="M660 2170h110v90H660v-90Z" fill="#264976"/><path d="M2010 2170h110v90h-110v-90Z" fill="#29496E"/><path d="M800 2170h110v90H800v-90Z" fill="#29486F"/><path d="M800 2040h110v90H800v-90Z" fill="#2D4D72"/><path d="M770 1560v90c-35.08 16.04-61.44 22.2-100 20v-90c77.5-20 77.5-20 100-20Z" fill="#325074"/><path d="M2150 2170h100v90h-100v-90Z" fill="#345276"/><path d="M2270 2060h100v90h-100v-90Z" fill="#3B5979"/><path d="M2150 2050h100v90h-100v-90Z" fill="#335276"/><path d="M670 2050h100v90H670v-90Z" fill="#2F4F76"/><path d="m2150 1320 100 30v90c-14.8-3.08-29.6-6.22-44.38-9.38l-24.96-5.27C2160 1420 2160 1420 2150 1410c-1.42-30.03-.42-59.92 0-90Z" fill="#27486E"/><path d="M770 1320v90c-14.79 5.02-29.58 10.01-44.38 15l-24.96 8.44C680 1440 680 1440 670 1440v-90c77.5-30 77.5-30 100-30Z" fill="#355073"/><path d="M2150 960c35.38 11.26 66.62 23.3 100 40v90c-35.38-11.26-66.62-23.3-100-40v-90Z" fill="#365376"/><path d="M770 1440v90c-36.2 13.16-60.96 20-100 20v-80c12.9-5.04 25.82-10.03 38.75-15l21.8-8.44C750 1440 750 1440 770 1440Z" fill="#28496C"/><path d="M2150 1200c14.8 4.76 29.6 9.56 44.38 14.38l24.96 8.08C2240 1230 2240 1230 2250 1240c1.41 26.7.42 53.24 0 80-39.16-5.34-63.93-11.97-100-30v-90Z" fill="#3B5779"/><path d="M770 1080v90c-66.25 30-66.25 30-100 30v-80c12.9-6.72 25.81-13.37 38.75-20l21.8-11.25C750 1080 750 1080 770 1080Z" fill="#364F6D"/><path d="m2150 1080 100 30v90c-39.16-5.34-63.93-11.97-100-30v-90Z" fill="#2B4C73"/><path d="m2270 1940 100 10v90l-100-10v-90Z" fill="#3E5978"/><path d="M770 1690v80c-66.25 20-66.25 20-100 20v-90c35.88-8.97 63.46-10.83 100-10Z" fill="#325175"/><path d="M770 960v90c-66.25 30-66.25 30-100 30v-80c12.9-6.72 25.81-13.37 38.75-20l21.8-11.25C750 960 750 960 770 960Z" fill="#335176"/><path d="M770 1810v90H670v-80c34.73-11.58 63.6-10.69 100-10Z" fill="#2E4E72"/><path d="M2150 1690c14.8 1.4 29.59 2.88 44.38 4.38l24.96 2.46C2240 1700 2240 1700 2250 1710c1.41 26.7.42 53.24 0 80-39.47 1.8-65.98.94-100-20v-80Z" fill="#345276"/><path d="m2150 1930 100 10v80h-100v-90Z" fill="#2F4F73"/><path d="m2270 1830 100 10v80h-100v-90Z" fill="#39597B"/><path d="m2270 1480 100 20v90l-100-20v-90Z" fill="#365071"/><path d="M2270 1250c35.58 6.1 66.83 15.78 100 30v80c-33.93-5.4-66.62-11.66-100-20v-90Z" fill="#365073"/><path d="m2270 1130 100 40v80c-35.58-6.1-66.83-15.78-100-30v-90Z" fill="#2D4B71"/><path d="m2270 1710 100 20v80l-100-10v-90Z" fill="#26476F"/><path d="m1490 1700 90 20c2.5 56.25 2.5 56.25-20 90-36.25 1.88-36.25 1.88-70 0v-110Z" fill="#244976"/><path d="m2270 1370 100 20v90l-100-30v-80Z" fill="#2B4B6F"/><path d="M2140 1080h10v90l100 30v20l31.25 3.75c34.96 5.64 65.59 14.12 98.75 26.25l-30 30-200-80v90h-10v-210Z" fill="#E6EFF5"/><path d="M1090 1340h10l10 120 40 10-50 10v100h-10l-10-80-10 90h-10v-100l-60 10 20-40h40l-10-110h20l10 100 10-110Z" fill="#C1CBD7"/><path d="M550 2060h90v90h-90v-90Z" fill="#355476"/><path d="M930 1650h10v90l40 10 20 20h-60v100h-10v-80l-130 10 10-40 120-20v-90Z" fill="#DDE8F0"/><path d="M2270 2180h100v80h-100v-80Z" fill="#2E4D71"/><path d="M1980 1650h50l-20 10v90l30 10h-40v20l30 10h-20v90h-10v-50h-20v-60h-90v-10h50v-20h40v-90Z" fill="#D0DCE6"/><path d="m770 960 20 10 3.75 23.75c3.93 27.73 3.93 27.73 26.88 44.38L840 1050l-50 10v90h-20v-70l-80 30v-20h-30v-90h10v80l100-30v-90Z" fill="#F3FCFD"/><path d="M640 1480v90l-90 20v-90c56.25-20 56.25-20 90-20Z" fill="#375476"/><path d="M640 1370v80c-31.35 18.58-53.75 22.01-90 20v-80c33.7-14.98 52.04-20 90-20Z" fill="#385374"/><path d="M640 1250v90l-90 20v-80c67.5-30 67.5-30 90-30Z" fill="#355071"/><path d="M640 1710v90l-90 10v-80c56.25-20 56.25-20 90-20Z" fill="#2E4D71"/><path d="M530 1840v90l-90 10v-80c67.5-20 67.5-20 90-20Z" fill="#445C77"/><path d="M640 1830v80c-29.57 14.78-57.42 10.6-90 10v-80c31.53-7 57.27-10 90-10Z" fill="#2C4C70"/><path d="M530 1620v90l-90 10v-80c67.5-20 67.5-20 90-20Z" fill="#2E4C73"/><path d="M530 1400v80c-67.5 30-67.5 30-90 30v-80c67.5-30 67.5-30 90-30Z" fill="#445C77"/><path d="m2390 1740 90 10v80l-90-10v-80Z" fill="#2B4A6F"/><path d="M2390 1410c31.23 4.86 59.96 9.99 90 20v80l-90-20v-80Z" fill="#304E72"/><path d="M550 2180h90v80h-90v-80Z" fill="#2A486E"/><path d="M440 2180h90v80h-90v-80Z" fill="#3C5676"/><path d="M2390 2180h90v80h-90v-80Z" fill="#375277"/><path d="M550 1950h90v80h-90v-80Z" fill="#2E4A69"/><path d="M440 1960h90v80h-90v-80Z" fill="#284971"/><path d="M530 1180v80c-56.25 30-56.25 30-90 30v-70c67.5-40 67.5-40 90-40Z" fill="#294C75"/><path d="M530 1740v80l-90 10v-80c30.73-9.1 58-10.89 90-10Z" fill="#365476"/><path d="M1670 2010h60v10h-50l10 120 110 10v10h-120v100h-10l-10-80-10 80h-10v-130h20l10-120Z" fill="#CCD6E2"/><path d="m2390 1290 80 30v80l-80-20v-90Z" fill="#2E4D6E"/><path d="M1150 1050c11.25 67.5 11.25 67.5 0 90l30 10-90 20v-100c40-20 40-20 60-20Z" fill="#415A78"/><path d="M340 2180h80v80h-80v-80Z" fill="#264A72"/><path d="M2490 2080h80v80h-80v-80Z" fill="#3B5779"/><path d="M340 2080h80v80h-80v-80Z" fill="#28496E"/><path d="M2490 1970h80v80h-80v-80Z" fill="#3C5776"/><path d="M2390 1960h80v80h-80v-80Z" fill="#2E4F76"/><path d="m2390 1850 80 10v80l-80-10v-80Z" fill="#2D4C72"/><path d="m2390 1630 80 10v80l-80-10v-80Z" fill="#334E6C"/><path d="m2490 1550 80 10v80l-80-10v-80Z" fill="#455A74"/><path d="M1100 790h30v20h40v60c-57.5 30-57.5 30-80 30a7579.16 7579.16 0 01-.63-49.38l-.35-27.77C1090 800 1090 800 1100 790Z" fill="#3E5A7D"/><path d="M340 1870h80c.42 23.33.4 46.67 0 70-10 10-10 10-45.63 10.63L340 1950v-80Z" fill="#3B577A"/><path d="M2490 1330c57.5 18.75 57.5 18.75 80 30v80l-80-30v-80Z" fill="#2A4C72"/><path d="M2490 1650c68.75 8.75 68.75 8.75 80 20 .4 23.33.42 46.67 0 70l-80-10v-80Z" fill="#405C7F"/><path d="M2140 2140h130l10 30h70v10l-100 10v-20h-100v90h-10v-120Z" fill="#D3DEE6"/><path d="m1850 1360 70 10-20 50h20v30l-70 10v-100Z" fill="#35506D"/><path d="M1660 1440h10c7.2 86.87 11.44 172.83 10 260l-30-10c-15.21-162.42-15.21-162.42 0-240l10-10Z" fill="#FAFEFD"/><path d="m1420 640 10 20-20 20c-15.98 28.96-28.02 59.2-40 90l-20-10c-6.25-25.63-6.25-25.63-10-50l-30 10-20-20 130-60Z" fill="#335177"/><path d="M1090 1890h10v90h140v140h-10v-110l-20 10c-20 .4-40 .43-60 0l30-20-90-10v-100Zm150 70h20v20h-20v-20Z" fill="#BFCBD6"/><path d="M660 1710h10v80l110-20-10 40-100 10v80h50v10h-60v-200Z" fill="#C5D3DE"/><path d="M1500 1220c39.56 3.14 72.45 7.48 110 20v40c-14.38-3.1-28.75-6.23-43.13-9.38l-24.25-5.27C1520 1260 1520 1260 1490 1250v110h-10a5319.51 5319.51 0 01-1.25-58.75l-.7-33.05C1480 1240 1480 1240 1500 1220Z" fill="#D6DFE8"/><path d="M1070 950v100l-90 10-10-20 50-10-7.5-17.5L1010 990c32.22-40 32.22-40 60-40Z" fill="#3D5C80"/><path d="m1576.88 2118.75 35.74.55L1640 2120v30h-150v110h-10a3549.6 3549.6 0 01-1.88-58.75l-1.05-33.05L1480 2140c36.32-24.21 53.83-22.1 96.88-21.25Z" fill="#DFEAF0"/><path d="M790 1560h10l5.86 61.52L810 1640l20 10-10 30h-20v90h-10l-4.38-28.75c-3.91-30.18-3.91-30.18-15.62-51.25h-30c3.13-19.38 3.13-19.38 10-40l30-10 10-80Z" fill="#CAD3DD"/><path d="M1040 1620h30c1.95 17.9 3.8 35.83 5.63 53.75l3.16 30.23C1080 1730 1080 1730 1070 1750c-.7 18.74-.85 37.5-.64 56.25l.28 30.4L1070 1860h-10v-100h-90l10-30h80v-100l-20-10Z" fill="#C3CFDA"/><path d="m1680 1550 120 20-20 10v20l20 10c-40.3-5.53-80.2-11.56-120-20v100h-10c-.27-17.7-.46-35.42-.63-53.13l-.35-29.88C1670 1580 1670 1580 1680 1550Z" fill="#DBE6EF"/><path d="m1510 1960 130 10v40l-150-10 30-20-10-20Z" fill="#DFEAF0"/><path d="M910 1910v100H800v-90c37.35-5.75 72.13-10 110-10Zm-100 40c-2.5 25.84-2.5 25.84 0 50l90-10v-60c-47.9-2.34-47.9-2.34-90 20Z" fill="#374E6D"/><path d="M1080 1620h10c7.98 78.3 11.45 151.96 0 230h-20c-1.95-17.9-3.8-35.83-5.63-53.75l-3.16-30.23C1060 1740 1060 1740 1070 1720c.46-15.2.4-30.42 0-45.63a780.2 780.2 0 01 0-44.37l10-10Z" fill="#F6FEFE"/><path d="M2150 1660c18.58.9 37.12 2.46 55.63 4.38l30.66 3.08L2260 1670l-20 40-90-20v80l20 10h-30a9202.76 9202.76 0 01-.63-54.38l-.35-30.58C2140 1670 2140 1670 2150 1660Z" fill="#CCD9E3"/><path d="M660 1470h10v80l100-20-20 40c-26.78 8.39-51.74 8.18-80 10l10 100h-20v-210Z" fill="#BFCEDA"/><path d="m1640 860 50 10-10 110-50-10 10-110Z" fill="#DFE7EE"/><path d="M1930 2030h50v100l-70-20 20-30v-50Z" fill="#3A587D"/><path d="M910 1780v100h-20v-60l-80-10v60h50l-20 20h-40v-90c87.5-20 87.5-20 110-20Z" fill="#374F6D"/><path d="M2250 1240h20c7.94 72.18 10.79 138.08 0 210l-20-10v-90h-20v-20h20v-90Z" fill="#F3FEFE"/><path d="m2430 1610 20 30-60-10v80l80 10v-70h10v80h-20l-10 20c-29.38-3.75-29.38-3.75-60-10-12.62-25.25-10.99-43.12-10.63-71.25l.28-27.58L2380 1620l50-10Z" fill="#C8D7E3"/><path d="M1570 1460v20h20a1588.14 1588.14 0 01 50 60 4381.24 4381.24 0 01-130-20l30-20-40-20c26.47-14.6 38.94-20 70-20Z" fill="#244A7A"/><path d="M1050 1080h20v100l60-20 10 30-40 10 10 110h-20l-1.48-21.52-2.27-27.86c-.7-9.16-1.4-18.33-2.1-27.77L1080 1210l-20-10c-4.14-27.23-4.14-27.23-6.25-60.63l-2.27-33.47L1050 1080Z" fill="#C3CDD8"/><path d="M1970 1000h10v100l-90-30c20-40 20-40 40.63-48.13L1950 1020l10 10 10-30Z" fill="#3D597E"/><path d="M1050 1770v80h-60l-10-30 24.38-8.75c26.95-8.58 26.95-8.58 35.62-31.25l-38.75 6.25c-21.8 3.52-21.8 3.52-41.25 3.75l-20-20c40.18-8.4 70.18-10.54 110 0Z" fill="#335279"/><path d="m1200 1340 30 10v60l-70 10-10-20c24.1-47.05 24.1-47.05 50-60Z" fill="#274A72"/><path d="M940 1650h60c0 20 0 20-15 36.25L970 1700l60 10v20l-90 10v-90Z" fill="#29496C"/><path d="M1850 1460c47.14 4.8 86.66 9.68 130 30v30c-17.92-3.09-35.84-6.22-53.75-9.38l-30.23-5.27C1870 1500 1870 1500 1850 1490v-30Z" fill="#E1ECF4"/><path d="M1230 740c-16.2 48.62-16.2 48.62-30 70-26.25 12.5-26.25 12.5-50 20v-20h-20l-10-30a8752.82 8752.82 0 01 43.75-20l24.6-11.25C1210 740 1210 740 1230 740Z" fill="#37557C"/><path d="m1850 1490 10 20 25 5 25 5 10 20h-20l10 30-20 20h-40v-100Z" fill="#294A6D"/><path d="M710.63 1109.38 740 1110l10 50c-27.09 13.54-50.1 10.65-80 10a999.84 999.84 0 01 0-50c10-10 10-10 40.63-10.63Z" fill="#274973"/><path d="M1690 2120h130v40l-140-10 10-30Z" fill="#E8F2F6"/><path d="M530 1930h40v20h-20v80h80l10 30h-40v-20h-70c-1.94-16.45-3.8-32.91-5.63-49.38l-3.16-27.77-1.2-22.85 10-10Z" fill="#DEEAF2"/><path d="M1530 1850c18.58.9 37.12 2.46 55.63 4.38l30.66 3.08L1640 1860l-30 20-30-10v30l30 10-30 20-40-20 20-30-40-20 10-10Zm40 80 30 30h-30v-30Z" fill="#37567D"/><path d="m1490 760 90 30-20 40-70-30v110h-10c-.27-23.12-.46-46.25-.63-69.38l-.35-39.02C1480 770 1480 770 1490 760Z" fill="#CBDAE4"/><path d="M1980 2160h140v10h-110v90h-30v-100Z" fill="#D0DEEA"/><path d="m1103.83 2118.05 27.42.7 27.58.55L1180 2120v10h-80v130h-10v-100h-20v100h-10a5319.51 5319.51 0 01-1.25-58.75l-.7-33.05c2.48-35.9 9.09-47.15 45.78-50.15Z" fill="#B9C5D0"/><path d="M1080 2100v30Zm-140 30h130l-10 30H940v-30Z" fill="#F5FEFF"/><path d="M1360 970h60l-10 22.5c-12.28 28.89-12.28 28.89-10 67.5l-40-20v-20h-20l20-50Z" fill="#254976"/><path d="m1850 1890 30 20v30l40 20v30h-70v-100Z" fill="#2B4769"/><path d="M1240 1700h-20v20h20v120l-30-10h20v-100l-70 10-10-30c56.25-21.25 56.25-21.25 90-10Z" fill="#C7D5E0"/><path d="m2270 1710 60 10-40 20v50h70v-60h10v80l-100-10v-90Z" fill="#445871"/><path d="m1850 1620 110 20c-21.39 21.39-31.33 24.27-60 30v-20h-20c-6.78 29-6.78 29-10 60l20 20h-40v-110Z" fill="#3C5377"/><path d="m1610 700 30 10v110l-110-40v-10c30.44-.82 50.72.24 80 10v-80Z" fill="#36506F"/><path d="m1290 1880 70 10-30 10v50l-50 10c-1.25-57.5-1.25-57.5 10-80Z" fill="#264A78"/><path d="m1410 1370-10 10 30 20-110 20v-20l-40-10a6491.8 6491.8 0 01 53.75-15.63l30.23-8.78C1390 1360 1390 1360 1410 1370Z" fill="#DCE5EE"/><path d="m2150 1290 100 30-20 10-10 20-60-20-10 80h-10a9202.76 9202.76 0 01-.63-54.38l-.35-30.58C2140 1300 2140 1300 2150 1290Z" fill="#D1DFE9"/><path d="M1860 1190c16.26 4.77 32.5 9.57 48.75 14.38l27.42 8.08C1960 1220 1960 1220 1980 1230v30l-110-30-10-40Z" fill="#E3EFF6"/><path d="m2270 1940 40 10h-20v20l40 10v20l20 10c-23.26 3.8-46.6 7.13-70 10-10-10-10-10-10.63-45.63L2270 1940Z" fill="#325276"/><path d="M490 1850h30v70h-60v-40l30-10v-20Z" fill="#264971"/><path d="M2150 1200c24.38 8.13 24.38 8.13 50 20 10 30 10 30 0 60h-50v-80Z" fill="#2C4C72"/><path d="M1690 1050c61.52 5.86 61.52 5.86 80 10l10 20-23.13 8.13c-25.6 11.31-38.84 21-56.87 41.87-10-10-10-10-10.63-45.63L1690 1050Z" fill="#244976"/><path d="m1870 1590 120 20-10 40-110-20v-40Z" fill="#DDE5EE"/><path d="M640 1370v80l-70-30c0-20 0-20 12.5-36.25C600 1370 600 1370 640 1370Z" fill="#2B4E72"/><path d="M1970 1260h10v100c-69.34-21.48-69.34-21.48-90-30l-10-20 28.75.63c30.32 1.63 30.32 1.63 51.25-10.63 6.52-20.25 6.52-20.25 10-40Z" fill="#47607E"/><path d="m1860 1050 100 40v30c-38.06-6.72-73.52-17.27-110-30l10-40Z" fill="#EBF5F9"/><path d="M1860 2160h120v100h-10v-90c-14.62 4.24-29.2 8.65-43.75 13.13l-24.6 7.38c-24.97 8.63-24.97 8.63-41.65 39.5v-70Z" fill="#465F7F"/><path d="M1270 2010h50c-3.9 60.55-3.9 60.55-10 80l-40 20v-100Z" fill="#2A486A"/><path d="M910 1660v90h-20l-10-20-30-20-10-20h30v-20c20-10 20-10 40-10Z" fill="#2A486B"/><path d="M1400 1550h30v110l-90 10 20-40 50 20 10-90-20-10Z" fill="#2E4A68"/><path d="M2150 1570c20-.43 40-.4 60 0 10 10 10 10 10.63 35.63L2220 1630l-30-30-20 40h-20v-70Z" fill="#304E72"/><path d="M660 1000h10v80l16.45-6.91 21.68-8.71 21.44-8.8C750 1050 750 1050 780 1060c-25.3 30.92-52.25 39.1-90 50v-20h-30v-90Z" fill="#CAD8E3"/><path d="M2000 1760h110l10 40-120-20v-20Z" fill="#E7EEF3"/><path d="m1880 1330 90 30v30l-120-30 30-30Z" fill="#E4EDF4"/><path d="m1230 1120 10 40-100 30-10-30 100-40Z" fill="#EAF3F9"/><path d="m1776.88 1433.75 24.49 3.36L1820 1440l-10 40-110-30c33.53-22.36 39.07-21.73 76.88-16.25Z" fill="#DFE9F0"/><path d="M1640 1290h10c.81 17.7 1.4 35.41 1.88 53.13l1.05 29.88c-2.93 27-2.93 27-16.06 45.74C1620 1430 1620 1430 1588.13 1426.88L1560 1420l20-10v-20h60v-100Z" fill="#D3DDE5"/><path d="m1850 1220 10 20c20.25 6.52 20.25 6.52 40 10l-10 50h-20v20h-20v-100Z" fill="#2B4869"/><path d="m2320 1150 50 20v80l-50-10 11.25-22.5c11.7-26.93 11.7-26.93 0-50.63L2320 1150Z" fill="#405779"/><path d="m1900 990 70 10v60l-20-30c-19.75 3.48-19.75 3.48-40 10l-10 20-20-10 20-60Z" fill="#28486D"/><path d="m1060 1860-10 30-100 10-10-30c40.64-7.74 78.64-10.98 120-10Z" fill="#E6F0F6"/><path d="M1960 1770h20v100h-80l30-10 10-30 20-20v-40Z" fill="#486380"/><path d="M940 1780h100l-10 30-90 10v-40Z" fill="#254974"/><path d="M1180 1470h40v70h-60l20-70Z" fill="#224B79"/><path d="M1910 1130h60v60h-50l-10-60Z" fill="#264A73"/><path d="M1020 2020h70c2.93 59.57 2.93 59.57 0 80l-30 30v-100l-40-10Z" fill="#CADAE3"/><path d="M440 1960h90v80l-20-10c-6.25-20.63-6.25-20.63-10-40l-50 10-10-40Z" fill="#456081"/><path d="M650 1820v90h-10v-80l-80 10-10-30c39.06-12.56 63.68-8.16 100 10Z" fill="#D4E0EA"/><path d="m1490 1700 30 10h-20v70h60v30h-70v-110Z" fill="#2C4868"/><path d="M1050 1490v50c-31.33 10.44-39.9 9.34-70 0l10-40c20.76-5.53 38.44-10 60-10Z" fill="#31527A"/><path d="M930 1390h10v90l70-10c-6.88 19.38-6.88 19.38-20 40-26.25 7.5-26.25 7.5-50 10-10.05-30.15-11.03-50.42-10.63-81.88l.28-27.3L930 1390Z" fill="#D9E5EE"/><path d="M1250 1470h10v70l-20 10c-.42-23.33-.4-46.67 0-70l10-10Zm-50 80h40v40h-50l10-40Z" fill="#EDF4F8"/><path d="m2010 1410 50 10-10 50-40 10v-70Z" fill="#284A6E"/><path d="m1850 1090 20 10 30 10v50l-50 20v-90Z" fill="#2C4669"/><path d="M910 1020v90l-20 10v-30l-20-10 10-30-40-10c47.5-20 47.5-20 70-20Z" fill="#35506F"/><path d="M730 2050h40v90H670v-50l10 40h70c2-37.16 1.52-47.72-20-80Z" fill="#2D4964"/><path d="M1910 1800h60c-28.75 38.75-28.75 38.75-40 50-20 .4-40 .43-60 0v-20l40-10v-20Z" fill="#244A76"/><path d="M2550 1670h20v70l-70-10v-20l50-10v-30Z" fill="#2C4A6F"/><path d="M640 1520v50h-70v-40c24.9-6.87 43.79-10 70-10Z" fill="#2A4C71"/><path d="M440 1430h60v40l-50 20c-10-10-10-10-10.63-35.63L440 1430Z" fill="#294971"/><path d="M1240 1300v110h-10v-60l-24.38-3.75L1180 1340l-10-20c47.5-20 47.5-20 70-20Z" fill="#47607C"/><path d="M2140 1080h10v90l40 20-40 10v90h-10v-210Z" fill="#B3C5D5"/><path d="M1150 1050h20v20l30 10-10 50-40 10c-11.25-67.5-11.25-67.5 0-90Z" fill="#224A72"/><path d="M720 2170h50v90H670l10-30v20h80l-10-60-30-10v-10Z" fill="#2F4764"/><path d="M340 2180h80v80h-80v-10l60-10 10-30-70-20v-10Z" fill="#4A637F"/><path d="m1380 1770 30 10-10 40-130 10 10-50 10 30 90-10v-30Z" fill="#415D7D"/><path d="M2230 1110h20v90c-42.2-4.8-67.97-11.66-100-40 57.5-1.25 57.5-1.25 80 10v-60Z" fill="#48617C"/><path d="M1150 1050c11.25 67.5 11.25 67.5 0 90h-20v-20h-20l-10-60c30-10 30-10 50-10Z" fill="#32537C"/><path d="m1680 1020 100 30v10l-90-10 10 80h-20v-110Z" fill="#3B5471"/><path d="M1380 1850h50v110l-40-10 20-20-10-30-20-10 20-20-20-20Z" fill="#2C4767"/><path d="m770 1440-10 80-10-40h-60l-10-20c67.5-20 67.5-20 90-20Z" fill="#385375"/><path d="M2350 1280h20v80c-57.5-7.5-57.5-7.5-80-30h60v-50Z" fill="#435A79"/><path d="m1650 970 30 10-10 110-20-10c-4.5-22.5-4.5-22.5-6.88-50l-2.61-27.5-.5-22.5 10-10Z" fill="#FAFCFD"/><path d="M1580 2010h60v100h-10v-80l-13.75 15C1600 2060 1600 2060 1580 2060v-50Z" fill="#2B4869"/><path d="M2240 1350h10v90l-90-20v-10l80-10v-50Z" fill="#536988"/><path d="m1900 1370 20 10-20 40h20v30l-50-10v-50h30v-20Z" fill="#264C76"/><path d="M1050 1370v80l-40-10 20-30-50-20 18.75-4.38c17.3-4.57 33.75-15.62 51.25-15.62Z" fill="#234972"/><path d="M2211.25 1339.38c9.49 3.5 18.98 7 28.75 10.62v20h-30l-10 30c-20-10-20-10-30-20a933.65 933.65 0 01-10-40c20-10 20-10 51.25-.63Z" fill="#304C76"/><path d="m1980 1140 40 10-10 90-10-20h-20v-80Z" fill="#CEDBE5"/><path d="M810 1050h30l-10 60h-20l10 40h-20c-.27-14.8-.46-29.58-.63-44.38l-.35-24.96C800 1060 800 1060 810 1050Z" fill="#2F4F72"/><path d="M1380 2000h50v110h-30l20-90-40-20Z" fill="#2E4866"/><path d="m2530 1560 40 10-10 50-50-10v-30h20v-20Z" fill="#2E5078"/><path d="M570 1290h60l-10 20-30 10h40v20h-70l10-50Z" fill="#254972"/><path d="M630 1980v40h-60v-40c30-10 30-10 60 0Z" fill="#254A78"/><path d="M340 1880h70l-20 10a701.34 701.34 0 00-10 40c-10 10-10 10-40 20v-70Z" fill="#29486B"/><path d="m440 1750 50 10-10 40h-20v30h-20v-80Z" fill="#2A496D"/><path d="m1050 1650-10 30-40-10v-20h-60v-10c43.44-10.86 70.06-9.97 110 10Zm-70 20 20 10Z" fill="#3A577D"/><path d="M1900 1650c11.25 37.5 11.25 37.5 0 60l20 20c-48.75-8.75-48.75-8.75-60-20a999.84 999.84 0 01 0-50c20-10 20-10 40-10Z" fill="#24496E"/><path d="M910 1630v30l-80 10v-20l-20-10c12.9-3.63 25.82-7.15 38.75-10.63l21.8-5.97C890 1620 890 1620 910 1630Z" fill="#DDE9EF"/><path d="M2370 1500v90l-20-10c-6.25-25.63-6.25-25.63-10-50h-20v-20c20-10 20-10 50-10Z" fill="#496381"/><path d="M1240 1440v110h-10v-80l-80 10v-20c67.5-20 67.5-20 90-20Z" fill="#4F6783"/><path d="M530 1180v80l-20 10c-10-30-10-30 0-60l-40 10v-20c37.5-20 37.5-20 60-20Z" fill="#4D627B"/><path d="M1430 790v30h-30l10 30-20 10-40-40c57.5-30 57.5-30 80-30Z" fill="#395577"/><path d="m1570 800 60 10 10 50-70-30v-30Z" fill="#ECF4F8"/><path d="M930 2160h10v100l-30 10c-2.5-76.25-2.5-76.25 20-110Z" fill="#DDEDF3"/><path d="m2150 2170 90 10-10 40v-30c-24.73 3.44-24.73 3.44-50 10l-10 20h-20v-50Z" fill="#2A486B"/><path d="M370 2120h40l10 40h-80l10-30 20 10v-20Z" fill="#466083"/><path d="M1400 1700h30v110h-30c8.75-77.5 8.75-77.5 20-100l-20-10Z" fill="#2D4765"/><path d="M2400 1640h30l3.75 24.38L2440 1690l20 10h-60v-60Z" fill="#254875"/><path d="M530 1620v90l-10-40-30 10-10-20 10-30c20-10 20-10 40-10Z" fill="#4B6282"/><path d="M1400 1400h30v80h-30v-80Z" fill="#2C486A"/><path d="m2430 1340 30 10v50l-70-20 20-10v-20l20-10Z" fill="#36557A"/><path d="M1970 1130h10v100l-60-20v-20h50v-60Z" fill="#4B637F"/><path d="m670 1000 40 10v50l-40 20v-80Z" fill="#27486C"/><path d="M1400 820h30v80l-40-10 10-70Z" fill="#2C4869"/><path d="M660 2170h60v20h-40l-10 70h-10v-90Z" fill="#617794"/><path d="m2270 1830 30 10c11.25 47.5 11.25 47.5 0 70h-30v-80Z" fill="#2D4866"/><path d="m2290 1800 80 10-10 30-90-10 20-10v-20Z" fill="#EAF2F8"/><path d="M640 1710c26.8 40.19 21.56 62.42 20 110h-50l20-20c4.6-22.03 4.6-22.03 6.25-46.25l2.27-24.77L640 1710Z" fill="#E5EDF2"/><path d="M910 1530v60l-10-40-27.5 11.25c-32.5 8.75-32.5 8.75-56.25 0L800 1550c38.77-11.93 69.16-20 110-20Z" fill="#3F5674"/><path d="m2440 1420 40 10v80l-40-10 20-10-20-70Z" fill="#5B6E88"/><path d="m2490 1330 50 20v50h-20l-10-40-10 50h-10v-80Z" fill="#466284"/><path d="m880 1150 20 10-30 50-50-30c30-20 30-20 60-30Z" fill="#38547C"/><path d="m1510 910 120 10v40c-14.4-4.53-28.76-9.12-43.13-13.75l-24.25-7.73C1540 930 1540 930 1510 910Z" fill="#3A5578"/><path d="M2360 1390h10v90l-60-20 40-10 10-60Z" fill="#536984"/><path d="m670 1360 60 20-10 30-50 10v-60Z" fill="#274771"/><path d="M790 1190h10v80l60-10-20 40h-20v-20h-30v-90Z" fill="#BECAD8"/><path d="M1420 1110h10v100h-30c1.4-14.8 2.88-29.59 4.38-44.38.8-8.23 1.62-16.47 2.46-24.96C1410 1120 1410 1120 1420 1110Z" fill="#304968"/><path d="M1050 1050c-25.02 16.68-44.11 26.24-71.88 36.25-10.73 3.9-10.73 3.9-21.67 7.9-5.43 1.92-10.86 3.86-16.45 5.85v-30c38.3-18.02 67.81-21.96 110-20Z" fill="#375574"/><path d="M1230 740c-8.35 25.04-17.94 46.68-30 70h-20v-20l-20-10h20l10-30c20-10 20-10 40-10Z" fill="#2D496C"/><path d="M1100 2130h100l-10 20c-20.66 4.14-20.66 4.14-45.63 6.25l-25.03 2.27L1100 2160v-30Z" fill="#F8FEFE"/><path d="M2415.63 1819.38 2440 1820l-20 10v20h-30v80h-10a7579.16 7579.16 0 01-.63-49.38l-.35-27.77c1.4-32.6 3.82-32.68 36.6-33.47Z" fill="#CBDAE9"/><path d="M1100 1750h70l-30 30-30-10v70h-10v-90Z" fill="#2B496C"/><path d="m1270 1020 10 40 30 10v30l-40 10v-90Z" fill="#304C6A"/><path d="M740 1690h30v80l-30-10v-70Z" fill="#2C4866"/><path d="M690 1730h30l20 50-60-10 10-40Z" fill="#264A74"/><path d="M510 1710v20l20 10-80 10-10-30c47.5-10 47.5-10 70-10Z" fill="#D0DEE8"/><path d="m750 1670-10 20c-23.22 4.07-46.57 7.44-70 10l10-30c29.44-11.78 39-10.33 70 0Z" fill="#EDF8FB"/><path d="M1270 1580h30l-10 100h-20v-100Z" fill="#2A4A66"/><path d="m1100 1540 100 10c-36.07 18.03-60.84 24.66-100 30v-40Z" fill="#3A5473"/><path d="M1340 1540c-20 30-20 30-46.25 36.88L1270 1580v-40c47.5-11.25 47.5-11.25 70 0Z" fill="#EFF6FC"/><path d="M1510 1510c16.03-.81 32.08-1.4 48.13-1.88l27.07-1.05c28.96 3.42 37.06 10.47 54.8 32.93a4381.24 4381.24 0 01-130-20v-10Z" fill="#435D7B"/><path d="M2470 1320h10l10 90-40 20-10-30h30v-80Z" fill="#C6D3DF"/><path d="m2390 1960 40 10h-20l5.63 23.75C2420 2020 2420 2020 2410 2040h-20v-80Z" fill="#2F4868"/><path d="M510 1830v20l-70 10v-30c31.33-10.44 39.9-9.34 70 0Z" fill="#D4E2EC"/><path d="m2420 1740 60 10v80h-10v-50h-20c-20-20-20-20-30-40Z" fill="#667A97"/><path d="M1160 1720v20l-60 10v-30c24.9-12.45 34.1-7.77 60 0Z" fill="#E9F4F7"/><path d="M1050 1490h10v100h-30l-10-40 20-10c6.56-25.27 6.56-25.27 10-50Z" fill="#2A4968"/><path d="m740 1430 10 20-80 20 10-40c37.5-11.25 37.5-11.25 60 0Z" fill="#E0ECF2"/><path d="M2550 1360h20v80l-40-10v-20h20v-50Z" fill="#39506A"/><path d="m1390 1360 20 10-10 10 30 20-70 10v-40l30-10Z" fill="#D0DFE6"/><path d="M790 1310h10v90h-20l-10 30c-12.45-24.9-7.77-34.1 0-60h20v-60Z" fill="#C6D2DB"/><path d="m1730 1090 30 10h-20v20h20l-10 30-40-10 20-50Z" fill="#33547A"/><path d="m1020 1070 10 30-70 10 10-30c30-10 30-10 50-10Z" fill="#E9F1F6"/><path d="M770 960v80l-20-20v-30l-30-10c30-20 30-20 50-20Z" fill="#2E4969"/><path d="M450 2190h50v40l-40 10-10-50Z" fill="#244A77"/><path d="M2390 1850h40v30h-30l10 50h-20v-80Z" fill="#2E4766"/><path d="m2340 1530 20 50h-30v-20l-40-10c30-20 30-20 50-20Z" fill="#224A76"/><path d="m1270 1430 40 10-20 20c-2.42 19.81-2.42 19.81-1.25 41.25L1290 1540h-20v-110Z" fill="#304B62"/><path d="M1190 1890h30v50l-40-10 10-40Z" fill="#214975"/><path d="m2320 1740 30 10v30l-50 10 20-50Z" fill="#244C79"/><path d="M1270 1730h40c-10.74 29.15-17.78 47.78-40 70v-70Z" fill="#294A69"/><path d="M1490 1550h20c6.88 27.5 6.88 27.5 10 60l-30 40v-100Z" fill="#2D466A"/><path d="m700 1490 40 20-10 30-30 10-20-10v-20l20-10v-20Z" fill="#2A4B79"/><path d="M1680 1450h30l-7.81 60.55c-2.56 19.5-2.56 19.5-2.19 39.45h-20v-100Z" fill="#2B4868"/><path d="m2290 1290 60 10v30l-50-10-10-30Z" fill="#214B77"/><path d="M450 1210h20l-10 80h-20c-.42-23.33-.4-46.67 0-70l10-10Z" fill="#324866"/><path d="m1780 1100 10 20h20v50l-40-20 10-50Z" fill="#33507B"/><path d="m1860 1050 60 20c-18.13 15.63-18.13 15.63-40 30l-30-10 10-40Z" fill="#DEE8F0"/><path d="m1720 890 30 20a904.88 904.88 0 01-40 40h-20v-50l30 10v-20Z" fill="#30517A"/><path d="m1320 900 60 20c-26.2 17.46-40.38 23.87-70 30l10-50Z" fill="#345475"/><path d="m1850 820 30 10-10 80h-20v-90Z" fill="#304866"/></svg>
